<?xml version="1.0" encoding="utf-8"?>
<!-- Generator: Adobe Illustrator 22.0.0, SVG Export Plug-In . SVG Version: 6.00 Build 0)  -->
<svg version="1.1" id="Warstwa_1" xmlns="http://www.w3.org/2000/svg" xmlns:xlink="http://www.w3.org/1999/xlink" x="0px" y="0px"
	 viewBox="0 0 707.1 200" style="enable-background:new 0 0 707.1 200;" xml:space="preserve">
<style type="text/css">
	.st0{fill:#1FA8D7;}
	.st1{display:none;fill:#FFFFFF;}
	.st2{opacity:4.000000e-02;stroke:#FFFFFF;stroke-miterlimit:10;enable-background:new    ;}
	.st3{opacity:8.000000e-02;stroke:#FFFFFF;stroke-miterlimit:10;enable-background:new    ;}
	.st4{fill-opacity:0;}
	.st5{opacity:8.000000e-02;fill:#1BB5CE;stroke:#FFFFFF;stroke-miterlimit:10;enable-background:new    ;}
	.st6{fill:#FFFFFF;}
	.st7{fill:#0C0B0B;}
	.st8{font-family:'Impact';}
	.st9{font-size:137px;}
	.st10{letter-spacing:24;}
	.st11{fill:#24B5C9;}
	.st12{letter-spacing:16;}
	.st13{font-size:112px;}
	.st14{letter-spacing:13;}
</style>
<polygon class="st0" points="0,150 0,50 86.6,0 173.2,50 173.2,150 86.6,200 "/>
<polygon class="st1" points="86.6,133.3 57.7,116.7 57.7,83.3 86.6,66.7 115.5,83.3 144.3,66.7 86.6,33.3 28.9,66.7 28.9,133.3 
	86.6,166.7 144.3,133.3 115.5,116.7 "/>
<polygon class="st2" points="0,50 86.6,100 86.6,0 "/>
<polygon class="st2" points="0,150 86.6,200 86.6,100 "/>
<polygon class="st3" points="86.6,100 173.2,150 173.2,50 "/>
<polygon class="st4" points="86.6,100 0,50 0,150 "/>
<polygon class="st3" points="173.2,150 86.6,100 86.6,200 "/>
<polygon class="st5" points="173.2,50 86.6,0 86.6,100 "/>
<rect x="18" y="51.7" class="st6" width="25.3" height="80.3"/>
<rect x="48.2" y="107.6" transform="matrix(0.6637 -0.748 0.748 0.6637 -95.0146 97.4005)" class="st6" width="25.3" height="93.5"/>
<rect x="104.1" y="109.8" transform="matrix(-0.6637 -0.748 0.748 -0.6637 82.0824 336.9023)" class="st6" width="25.3" height="80.3"/>
<rect x="129.9" y="51.7" class="st6" width="25.3" height="80.1"/>
<text transform="matrix(1 0 0 1 180 150)"><tspan x="0" y="0" class="st7 st8 st9 st10">RM</tspan><tspan x="220.5" y="0" class="st11 st8 st9 st12">I</tspan><tspan x="276.9" y="0" class="st11 st8 st13 st14">nc.</tspan></text>
</svg>
